PathFileType	4	(X/Y/Z)	Patient4_TMGait_0pt8_01_right_36.trc.trc
DataRate	CameraRate	NumFrames	NumMarkers	Units	OrigDataRate	OrigDataStartFrame	OrigNumFrames
85.365853658537	85.365853658537	6	33	mm	85.365853658537	53	       141
Frame#	Time	Sacral			L.Shoulder			Chest			R.Shoulder			Neck			R.ASIS			L.ASIS			R.Thigh.Superior			R.Thigh.Lateral			R.Thigh.Inferior			R.Patella			L.Thigh.Superior			L.Thigh.Lateral			L.Thigh.Inferior			L.Patella			L.Shank.Superior			L.Shank.Lateral			L.Shank.Inferior			R.Shank.Superior			R.Shank.Lateral			R.Shank.Inferior			R.Heel			R.Midfoot.Superior			R.Midfoot.Lateral			R.Toe			L.Heel			L.Midfoot.Lateral			L.Midfoot.Superior			L.Toe			L.Elbow			L.Wrist			R.Elbow			R.Wrist			
		X1	Y1	Z1	X2	Y2	Z2	X3	Y3	Z3	X4	Y4	Z4	X5	Y5	Z5	X6	Y6	Z6	X7	Y7	Z7	X8	Y8	Z8	X9	Y9	Z9	X10	Y10	Z10	X11	Y11	Z11	X12	Y12	Z12	X13	Y13	Z13	X14	Y14	Z14	X15	Y15	Z15	X16	Y16	Z16	X17	Y17	Z17	X18	Y18	Z18	X19	Y19	Z19	X20	Y20	Z20	X21	Y21	Z21	X22	Y22	Z22	X23	Y23	Z23	X24	Y24	Z24	X25	Y25	Z25	X26	Y26	Z26	X27	Y27	Z27	X28	Y28	Z28	X29	Y29	Z29	X30	Y30	Z30	X31	Y31	Z31	X32	Y32	Z32	X33	Y33	Z33	

53	40.929142857143	865.734463772953	1009.325808007846	540.574300104291	1014.475561319783	1437.978539961745	346.597353822853	1141.972152133111	1368.131931033121	489.213923398152	1086.656053956508	1437.388400977518	676.306942470129	1022.701278468378	1497.342289105047	504.965593545528	1103.325048445954	946.988566436495	631.071247734102	1059.071426833685	965.838825682318	360.606638963904	1125.792512312230	740.323512477842	599.648626461254	1039.797974650279	634.019945464651	663.208012704714	1107.705265792598	578.235208019372	580.215986736269	1100.183815962038	489.920751182363	585.096023989470	1154.115538427494	798.738363268820	377.220042393274	1115.421913028758	669.988569329234	296.060749226840	1229.775864050183	617.021401138021	344.097064958119	1254.148933315624	534.746038102513	330.811919665658	1207.246269252629	457.707279797259	325.374907791887	1082.477187071351	372.958916028417	289.437126582080	1121.805446562619	244.116520859021	333.326433348250	1067.898255423367	403.217369551357	590.171883760130	991.780785075359	301.217865933068	649.262089272520	1029.408917501219	206.400773567405	582.177585136874	887.428030825877	45.220672389632	547.185944236110	1060.353080917399	97.504539029582	584.250299765248	971.120954665871	37.829513630038	621.550242366645	1179.248772784267	41.331097631329	610.686407285579	971.362050796028	117.880583256576	386.690679133963	1029.334842995280	97.618048894660	296.951484942357	1128.799595990275	137.819538010897	308.219014470405	1232.889513698061	58.036828717259	261.657722398267	965.977134391842	1081.641620252451	248.229476074786	1029.285488956767	827.359299035293	243.636254865195	1142.714577813813	1092.517910487334	797.683830666768	1350.301201175801	938.781958093057	767.783080248498	
54	40.940857142857	864.354802746424	1009.667910277130	541.224617526975	1012.751635767292	1437.804892183784	346.725070667616	1140.696254784142	1367.903209967521	488.883688009341	1086.347209557550	1437.487478152217	676.175772659489	1021.717031249199	1497.313242503504	505.062433636658	1101.732075550574	947.033113523330	631.464681448841	1057.256089922995	965.539599651479	360.873105693294	1120.943029788310	739.500395352348	600.544110442915	1032.785178334905	634.355859467953	664.097872849989	1099.679902590709	577.442507490540	581.550732770775	1090.636746837522	489.806123313088	586.341145221578	1151.804028738349	799.187410192221	377.309863337713	1113.664400375513	670.235990693915	295.816007717542	1227.968463503442	617.914160707753	344.061387776441	1253.694912525118	537.743769737190	330.603004337181	1211.192325887743	460.083098081131	324.740869063206	1092.866547668701	367.478829988897	287.741719988783	1140.891585825132	241.145711166258	331.034026736310	1058.405009777186	403.376354739651	591.188400625833	981.887496159832	301.388419735845	649.979467444304	1019.857317408944	206.602392850402	582.878147887779	877.985474455478	45.238972389996	547.324865667909	1051.089956546869	97.638602825173	584.620367740133	961.650583525047	37.794446938396	621.609507569484	1169.770257797637	41.315187035977	610.783328104692	999.605519156146	104.740105309058	383.069743740352	1059.150157530332	88.839217766737	293.585476056181	1155.585166190955	135.424171974346	305.394426911298	1264.873552164348	62.768289310472	259.249879617249	955.562407358475	1082.686847560700	249.422229400681	1002.789567385038	825.104303861628	245.782482913221	1153.058030830987	1094.800117533556	796.620856606802	1370.590127583279	957.120367188660	762.551101787543	
55	40.952571428571	863.054526622815	1009.871901049987	541.623751116635	1011.256327058559	1437.511548751777	346.716971236109	1139.536270286397	1367.491189855358	488.487618109590	1086.010765583620	1437.373202683873	675.935886052697	1020.819153360271	1497.104277963217	505.034748085275	1100.152445829871	946.906077105881	631.783195653929	1055.671369537457	964.981518909953	361.000623635697	1116.104191643246	738.514908048017	601.534572694201	1025.588080134142	634.635356357139	664.912359236604	1091.507724060936	576.567985424156	582.859015542208	1081.001768929480	489.656200081880	587.518410801617	1149.208871468009	798.812377078939	377.374275718977	1111.253878157244	669.765678698067	295.558083350140	1225.365940715011	617.807260452610	344.199078396142	1252.312156556907	539.937501038135	330.780122852063	1214.297284451372	462.078957900658	324.427230269852	1103.208026766331	362.033507931154	285.838872616492	1159.630939814045	238.876871954490	328.815294089922	1048.762686571130	403.534950229211	592.123388909530	971.902173962345	301.549322691181	650.639202678469	1010.217088893910	206.797154902032	583.522069932818	868.524214521018	45.208072400603	547.458376417665	1041.807223097896	97.783222280892	584.988452546277	952.158885683295	37.747011532764	621.669353340006	1160.282010889145	41.344996496287	610.875588680592	1028.079647426307	92.970524234193	378.894001332606	1089.366434905633	81.400139445439	290.026867563781	1182.238461187274	134.162413546273	302.773747300038	1296.412493794395	68.897108291126	257.790615352963	944.731029504161	1084.100930747707	250.285094674464	977.149249212062	824.480474464342	248.016682653621	1163.101188498735	1097.207465275252	795.218983767073	1389.342958705356	976.371040050565	757.049898525722	
56	40.964285714286	861.845448144802	1009.936756249237	541.781143801397	1009.975023437157	1437.091488205396	346.570259176654	1138.492101319472	1366.900299974035	488.019391294705	1085.653299091139	1437.052007532760	675.580325941532	1020.002926160043	1496.713036222892	504.885459167708	1098.598700524648	946.590020274665	632.011744339719	1054.307769055133	964.177610640220	360.990864614086	1111.291897201971	737.359438426220	602.574373976666	1018.274251745429	634.851964561346	665.638993108828	1083.238566495841	575.617570537160	584.094644890680	1071.353263610124	489.449459390914	588.591663544998	1146.375933998695	797.659073912611	377.422995695768	1108.257027546603	668.621613324749	295.271705066655	1222.079089307477	616.769545540569	344.467583511605	1250.116717031826	541.355775341918	331.327408577496	1216.604079459721	463.719506197045	324.414311576994	1113.392020296237	356.766910428979	283.792881655508	1177.801796681431	237.387404694594	326.729354010623	1039.022326241944	403.677088018150	592.956861549958	961.879320404909	301.697366865548	651.239917514392	1000.515249657526	206.977877407546	584.096775251109	859.044330325057	45.128126223372	547.584818190425	1032.493570901378	97.925102158703	585.337251182603	942.649022575796	37.689540434122	621.732166206996	1150.787692282302	41.415965270019	610.959892022650	1056.405138947511	82.739957822636	374.350207118109	1119.571572327747	75.424668372055	286.418016897959	1208.420478080619	134.097488226878	300.416390048157	1327.129834226510	76.404927049818	257.268128413832	933.588537042302	1085.899623764363	250.868582976498	952.517567948008	825.243982701655	250.339136456301	1172.837392255875	1099.730903073328	793.496386936004	1406.466549410744	996.359004720847	751.340090102181	
57	40.976000000000	860.737334347787	1009.860338777980	541.708482276926	1008.887767543316	1436.539905412808	346.283149985546	1137.559158207303	1366.137900305841	487.472673533145	1085.279396317807	1436.535508054276	675.102534381876	1019.259924004310	1496.141017370043	504.614138050406	1097.082741096708	946.072483888140	632.136877587072	1053.149490583773	963.144716178258	360.848691322519	1106.525066295064	736.035961148840	603.601039822053	1010.936314039888	634.997795637498	666.264485356227	1074.945709695575	574.602639117675	585.206759652757	1061.783499714898	489.166088701811	589.525301916262	1143.371124234798	795.807237590237	377.463955236608	1104.776355394294	666.877439383445	294.944064662272	1218.258912194753	614.912727853322	344.813670450001	1247.261583094981	542.055511578266	332.191246138491	1218.176725984282	465.029031027078	324.648426666560	1123.255523075962	351.801101255230	281.709310518371	1195.151577550810	236.690088474201	324.832716636496	1029.259379833987	403.784209659057	593.672586542375	951.889390664490	301.829035462125	651.782905325802	990.789781824627	207.135445837812	584.593285985170	849.548084275164	45.003780467716	547.703917527396	1023.140912049818	98.051367846831	585.651386926018	933.125599813152	37.624838808701	621.800177553068	1141.291231386797	41.519834564996	611.033475986402	1084.143493667186	74.136604741460	369.709381810348	1149.240239904352	70.941092833286	282.939838856186	1233.720367209520	135.193411190834	298.365724470644	1356.561352156649	85.138430956212	257.561544050914	922.269864379323	1088.080268076573	251.233639061146	928.984906531105	827.151718677075	252.743129979283	1182.259794666475	1102.365652589440	791.476126381752	1421.895473769322	1016.893281755400	745.484661448526	
58	40.987714285714	859.735072206953	1009.640074065446	541.417440887491	1007.971337502521	1435.855397565838	345.854452837736	1136.729156459420	1365.214092660270	486.840929310214	1084.891867569844	1435.839682457326	674.496369249238	1018.579363510589	1495.393886651653	504.217205383718	1095.615383469700	945.348052151897	632.147133071504	1052.176172694260	961.903009948906	360.580453880301	1101.830027017849	734.556077554578	604.540263754287	1003.688606777575	635.062432939945	666.773981084473	1066.725516025040	573.536761763525	586.142732870156	1052.399522460752	488.788625210820	590.285453660645	1140.280436665455	793.369502079009	377.504050297920	1100.952051118425	664.633200968222	294.570300042663	1214.091802580271	612.387164355388	345.182144728907	1243.933791792390	542.119084841699	333.283531942427	1219.098646222877	466.025711122695	325.052080757501	1132.589863170392	347.224566737526	279.728470889166	1211.401250665901	236.724291158401	323.180769272341	1019.572307100638	403.835012924119	594.256800409778	942.017071918908	301.939920713109	652.269825475967	981.088522352317	207.257760045030	585.005048615227	840.039453492545	44.843736469558	547.816315048054	1013.745329218052	98.150869982239	585.918862454623	923.594097911245	37.555671059924	621.875102132870	1131.796192062958	41.645041539447	611.094436472900	1110.795647729050	67.163318611005	365.306275691962	1177.744135311077	67.873004537459	279.799154227522	1257.665571626927	137.305034994438	296.652291945379	1384.169719668024	94.794150066923	258.458900635979	910.928955885369	1090.619659381765	251.445689531561	906.591288271546	829.975653505572	255.213547827650	1191.358552548616	1105.109372236349	789.185711655674	1435.592773677645	1037.770053232723	739.546750005267	
